<?xml version="1.0" encoding="UTF-8"?>
<svg xmlns="http://www.w3.org/2000/svg" id="chip_1_" data-name="chip (1)" width="60.078" height="60.077" viewBox="0 0 60.078 60.077">
  <g id="Group_2498" data-name="Group 2498" transform="translate(11.289 0)">
    <g id="Group_2497" data-name="Group 2497" transform="translate(0 0)">
      <path id="Path_1377" data-name="Path 1377" d="M144.114,29.16h-14.17v-2h3.823a.88.88,0,0,0,0-1.76h-3.823v-2H132.6a3.677,3.677,0,0,0,2.618-1.084L141,16.523a2.76,2.76,0,1,0-1.245-1.245l-5.788,5.788a1.929,1.929,0,0,1-1.373.569h-2.654V19.693a4.648,4.648,0,0,0-4.642-4.642h-1.942V7.26a2.761,2.761,0,1,0-1.76,0v7.791h-2V11.228a.88.88,0,0,0-1.76,0v3.823h-2V.881a.88.88,0,0,0-1.76,0v14.17h-2V11.228a.88.88,0,1,0-1.76,0v3.823h-2V12.4a3.677,3.677,0,0,0-1.084-2.618l-5.79-5.79a2.763,2.763,0,1,0-1.244,1.244l5.79,5.79a1.929,1.929,0,0,1,.569,1.373v2.654h-1.942a4.662,4.662,0,0,0-1.16.146.88.88,0,1,0,.439,1.7,2.9,2.9,0,0,1,.721-.091H125.3a2.886,2.886,0,0,1,2.882,2.882V40.386a2.9,2.9,0,0,1-.091.721.88.88,0,1,0,1.7.438,4.657,4.657,0,0,0,.146-1.159V38.444h7.791a2.761,2.761,0,1,0,0-1.76h-7.791v-2h3.823a.88.88,0,0,0,0-1.76h-3.823v-2h14.17a.88.88,0,1,0,0-1.76Zm-2.589-15.818a1,1,0,1,1-.293.708A.994.994,0,0,1,141.525,13.342ZM99.673,3.47a1,1,0,1,1,0-1.416A1,1,0,0,1,99.673,3.47Zm22.807,2.174a1,1,0,1,1,1-1A1,1,0,0,1,122.481,5.645Zm17.871,30.919a1,1,0,1,1-1,1A1,1,0,0,1,140.352,36.563Z" transform="translate(-96.206 -0.001)" fill="#003a69"></path>
    </g>
  </g>
  <g id="Group_2500" data-name="Group 2500" transform="translate(0 17.871)">
    <g id="Group_2499" data-name="Group 2499">
      <path id="Path_1378" data-name="Path 1378" d="M47.981,189.8a2.764,2.764,0,0,0-3.179-.519l-5.79-5.79a1.929,1.929,0,0,1-.569-1.373v-2.654h1.942a4.659,4.659,0,0,0,1.16-.146.88.88,0,1,0-.439-1.7,2.9,2.9,0,0,1-.721.091H19.692a2.886,2.886,0,0,1-2.882-2.882V154.127a2.9,2.9,0,0,1,.091-.721.88.88,0,1,0-1.7-.439,4.652,4.652,0,0,0-.146,1.16v1.942H7.259a2.761,2.761,0,1,0,0,1.76H15.05v2H11.227a.88.88,0,1,0,0,1.76H15.05v2H.88a.88.88,0,1,0,0,1.76H15.05v2H11.227a.88.88,0,1,0,0,1.76H15.05v2H12.4A3.677,3.677,0,0,0,9.778,172.2L3.99,177.99a2.759,2.759,0,1,0,1.245,1.244l5.788-5.788a1.929,1.929,0,0,1,1.373-.569H15.05v1.942a4.648,4.648,0,0,0,4.642,4.642h1.942v7.791a2.761,2.761,0,1,0,1.76,0v-7.791h2v3.823a.88.88,0,1,0,1.76,0v-3.823h2v14.17a.88.88,0,0,0,1.76,0v-14.17h2v3.823a.88.88,0,0,0,1.76,0v-3.823h2v2.654a3.677,3.677,0,0,0,1.084,2.618l5.79,5.79a2.76,2.76,0,1,0,4.424-.726ZM4.642,157.95a1,1,0,1,1,1-1A1,1,0,0,1,4.642,157.95ZM3.469,181.172a1,1,0,1,1,.293-.708A.994.994,0,0,1,3.469,181.172Zm20.046,8.7a1,1,0,1,1-1-1A1,1,0,0,1,23.515,189.87Zm23.222,2.589a1,1,0,1,1,0-1.416A1,1,0,0,1,46.737,192.459Z" transform="translate(0 -152.306)" fill="#003a69"></path>
    </g>
  </g>
  <g id="Group_2502" data-name="Group 2502" transform="translate(20.693 19.753)">
    <g id="Group_2501" data-name="Group 2501">
      <path id="Path_1379" data-name="Path 1379" d="M195.048,176.275a4.251,4.251,0,0,0-3.261-3.994,3,3,0,0,0,.087-.709,3.392,3.392,0,0,0-3.525-3.232,3.661,3.661,0,0,0-2.645,1.1,3.661,3.661,0,0,0-2.645-1.1,3.392,3.392,0,0,0-3.525,3.232,3,3,0,0,0,.087.709,4.251,4.251,0,0,0-3.261,3.994,3.865,3.865,0,0,0,.927,2.5,4.352,4.352,0,0,0-.927,2.669,4.532,4.532,0,0,0,2.116,3.76v0a3.9,3.9,0,0,0,4.055,3.7,4.2,4.2,0,0,0,3.174-1.4,4.2,4.2,0,0,0,3.174,1.4,3.922,3.922,0,0,0,4.046-3.473,4.113,4.113,0,0,0,2.125-3.52,3.967,3.967,0,0,0-1.224-2.822A3.967,3.967,0,0,0,195.048,176.275Zm-3.115,3.6a2.348,2.348,0,0,1,1.354,2.044,2.251,2.251,0,0,1-.775,1.655,3.951,3.951,0,0,0-2.314-1.863.88.88,0,0,0-.528,1.679,2,2,0,0,1,1.5,1.822,2.327,2.327,0,0,1-4.589,0v-5.644a2.143,2.143,0,0,1,2.294-1.942.88.88,0,1,0,0-1.76,4.3,4.3,0,0,0-2.294.652v-1.124a.88.88,0,1,0-1.76,0v4.886a4.194,4.194,0,0,0-.972-.45.88.88,0,0,0-.528,1.679,2,2,0,0,1,1.5,1.822v1.881a2.327,2.327,0,0,1-4.589,0,1.774,1.774,0,0,1,.548-1.256.88.88,0,1,0-1.241-1.248,3.743,3.743,0,0,0-.543.682,2.685,2.685,0,0,1-.88-1.94,3,3,0,0,1,2.489-2.785.88.88,0,0,0-.394-1.715,5.361,5.361,0,0,0-1.614.658,2.124,2.124,0,0,1-.48-1.33,2.642,2.642,0,0,1,2.8-2.412h.023a.879.879,0,0,0,.747-1.343c-.007-.011-.013-.022-.02-.032l-.012-.016c-.014-.019-.028-.038-.043-.056v0a1.306,1.306,0,0,1-.322-.844,1.795,1.795,0,0,1,3.531,0,.88.88,0,1,0,1.76,0,1.795,1.795,0,0,1,3.531,0,1.238,1.238,0,0,1-.132.554,4.887,4.887,0,0,0-1.444.362.88.88,0,1,0,.684,1.622,3.177,3.177,0,0,1,1.217-.246h.049a2.641,2.641,0,0,1,2.8,2.412,2.348,2.348,0,0,1-1.354,2.044.88.88,0,0,0,0,1.557Z" transform="translate(-176.357 -168.34)" fill="#003a69"></path>
    </g>
  </g>
</svg>
